<svg xmlns="http://www.w3.org/2000/svg" xmlns:xlink="http://www.w3.org/1999/xlink" version="1.1" class="marks" width="1105" height="559" viewBox="0 0 1105 559"><rect width="1105" height="559" fill="white"/><g fill="none" stroke-miterlimit="10" transform="translate(204,22)"><g class="mark-group role-frame root" role="graphics-object" aria-roledescription="group mark container"><g transform="translate(0,0)"><path class="background" aria-hidden="true" d="M0.5,0.5h800v500h-800Z" stroke="#ddd"/><g><g class="mark-group role-axis" aria-hidden="true"><g transform="translate(0.5,500.5)"><path class="background" aria-hidden="true" d="M0,0h0v0h0Z" pointer-events="none"/><g><g class="mark-rule role-axis-grid" pointer-events="none"><line transform="translate(0,0)" x2="0" y2="-500" stroke="#ddd" stroke-width="1" opacity="1"/><line transform="translate(40,0)" x2="0" y2="-500" stroke="#ddd" stroke-width="1" opacity="1"/><line transform="translate(80,0)" x2="0" y2="-500" stroke="#ddd" stroke-width="1" opacity="1"/><line transform="translate(120,0)" x2="0" y2="-500" stroke="#ddd" stroke-width="1" opacity="1"/><line transform="translate(160,0)" x2="0" y2="-500" stroke="#ddd" stroke-width="1" opacity="1"/><line transform="translate(200,0)" x2="0" y2="-500" stroke="#ddd" stroke-width="1" opacity="1"/><line transform="translate(240,0)" x2="0" y2="-500" stroke="#ddd" stroke-width="1" opacity="1"/><line transform="translate(280,0)" x2="0" y2="-500" stroke="#ddd" stroke-width="1" opacity="1"/><line transform="translate(320,0)" x2="0" y2="-500" stroke="#ddd" stroke-width="1" opacity="1"/><line transform="translate(360,0)" x2="0" y2="-500" stroke="#ddd" stroke-width="1" opacity="1"/><line transform="translate(400,0)" x2="0" y2="-500" stroke="#ddd" stroke-width="1" opacity="1"/><line transform="translate(440,0)" x2="0" y2="-500" stroke="#ddd" stroke-width="1" opacity="1"/><line transform="translate(480,0)" x2="0" y2="-500" stroke="#ddd" stroke-width="1" opacity="1"/><line transform="translate(520,0)" x2="0" y2="-500" stroke="#ddd" stroke-width="1" opacity="1"/><line transform="translate(560,0)" x2="0" y2="-500" stroke="#ddd" stroke-width="1" opacity="1"/><line transform="translate(600,0)" x2="0" y2="-500" stroke="#ddd" stroke-width="1" opacity="1"/><line transform="translate(640,0)" x2="0" y2="-500" stroke="#ddd" stroke-width="1" opacity="1"/><line transform="translate(680,0)" x2="0" y2="-500" stroke="#ddd" stroke-width="1" opacity="1"/><line transform="translate(720,0)" x2="0" y2="-500" stroke="#ddd" stroke-width="1" opacity="1"/><line transform="translate(760,0)" x2="0" y2="-500" stroke="#ddd" stroke-width="1" opacity="1"/><line transform="translate(800,0)" x2="0" y2="-500" stroke="#ddd" stroke-width="1" opacity="1"/></g></g><path class="foreground" aria-hidden="true" d="" pointer-events="none" display="none"/></g></g><g class="mark-group role-axis" role="graphics-symbol" aria-roledescription="axis" aria-label="X-axis titled '年収（万円）' for a linear scale with values from 0 to 2,000"><g transform="translate(0.5,500.5)"><path class="background" aria-hidden="true" d="M0,0h0v0h0Z" pointer-events="none"/><g><g class="mark-rule role-axis-tick" pointer-events="none"><line transform="translate(0,0)" x2="0" y2="5" stroke="#888" stroke-width="1" opacity="1"/><line transform="translate(40,0)" x2="0" y2="5" stroke="#888" stroke-width="1" opacity="1"/><line transform="translate(80,0)" x2="0" y2="5" stroke="#888" stroke-width="1" opacity="1"/><line transform="translate(120,0)" x2="0" y2="5" stroke="#888" stroke-width="1" opacity="1"/><line transform="translate(160,0)" x2="0" y2="5" stroke="#888" stroke-width="1" opacity="1"/><line transform="translate(200,0)" x2="0" y2="5" stroke="#888" stroke-width="1" opacity="1"/><line transform="translate(240,0)" x2="0" y2="5" stroke="#888" stroke-width="1" opacity="1"/><line transform="translate(280,0)" x2="0" y2="5" stroke="#888" stroke-width="1" opacity="1"/><line transform="translate(320,0)" x2="0" y2="5" stroke="#888" stroke-width="1" opacity="1"/><line transform="translate(360,0)" x2="0" y2="5" stroke="#888" stroke-width="1" opacity="1"/><line transform="translate(400,0)" x2="0" y2="5" stroke="#888" stroke-width="1" opacity="1"/><line transform="translate(440,0)" x2="0" y2="5" stroke="#888" stroke-width="1" opacity="1"/><line transform="translate(480,0)" x2="0" y2="5" stroke="#888" stroke-width="1" opacity="1"/><line transform="translate(520,0)" x2="0" y2="5" stroke="#888" stroke-width="1" opacity="1"/><line transform="translate(560,0)" x2="0" y2="5" stroke="#888" stroke-width="1" opacity="1"/><line transform="translate(600,0)" x2="0" y2="5" stroke="#888" stroke-width="1" opacity="1"/><line transform="translate(640,0)" x2="0" y2="5" stroke="#888" stroke-width="1" opacity="1"/><line transform="translate(680,0)" x2="0" y2="5" stroke="#888" stroke-width="1" opacity="1"/><line transform="translate(720,0)" x2="0" y2="5" stroke="#888" stroke-width="1" opacity="1"/><line transform="translate(760,0)" x2="0" y2="5" stroke="#888" stroke-width="1" opacity="1"/><line transform="translate(800,0)" x2="0" y2="5" stroke="#888" stroke-width="1" opacity="1"/></g><g class="mark-text role-axis-label" pointer-events="none"><text text-anchor="start" transform="translate(0,15)" font-family="sans-serif" font-size="10px" fill="#000" opacity="1">0</text><text text-anchor="middle" transform="translate(40,15)" font-family="sans-serif" font-size="10px" fill="#000" opacity="0">100</text><text text-anchor="middle" transform="translate(80,15)" font-family="sans-serif" font-size="10px" fill="#000" opacity="1">200</text><text text-anchor="middle" transform="translate(120,15)" font-family="sans-serif" font-size="10px" fill="#000" opacity="0">300</text><text text-anchor="middle" transform="translate(160,15)" font-family="sans-serif" font-size="10px" fill="#000" opacity="1">400</text><text text-anchor="middle" transform="translate(200,15)" font-family="sans-serif" font-size="10px" fill="#000" opacity="0">500</text><text text-anchor="middle" transform="translate(240,15)" font-family="sans-serif" font-size="10px" fill="#000" opacity="1">600</text><text text-anchor="middle" transform="translate(280,15)" font-family="sans-serif" font-size="10px" fill="#000" opacity="0">700</text><text text-anchor="middle" transform="translate(320,15)" font-family="sans-serif" font-size="10px" fill="#000" opacity="1">800</text><text text-anchor="middle" transform="translate(360,15)" font-family="sans-serif" font-size="10px" fill="#000" opacity="0">900</text><text text-anchor="middle" transform="translate(400,15)" font-family="sans-serif" font-size="10px" fill="#000" opacity="1">1,000</text><text text-anchor="middle" transform="translate(440.00000000000006,15)" font-family="sans-serif" font-size="10px" fill="#000" opacity="0">1,100</text><text text-anchor="middle" transform="translate(480,15)" font-family="sans-serif" font-size="10px" fill="#000" opacity="1">1,200</text><text text-anchor="middle" transform="translate(520,15)" font-family="sans-serif" font-size="10px" fill="#000" opacity="0">1,300</text><text text-anchor="middle" transform="translate(560,15)" font-family="sans-serif" font-size="10px" fill="#000" opacity="1">1,400</text><text text-anchor="middle" transform="translate(600,15)" font-family="sans-serif" font-size="10px" fill="#000" opacity="0">1,500</text><text text-anchor="middle" transform="translate(640,15)" font-family="sans-serif" font-size="10px" fill="#000" opacity="1">1,600</text><text text-anchor="middle" transform="translate(680,15)" font-family="sans-serif" font-size="10px" fill="#000" opacity="0">1,700</text><text text-anchor="middle" transform="translate(720,15)" font-family="sans-serif" font-size="10px" fill="#000" opacity="1">1,800</text><text text-anchor="middle" transform="translate(760,15)" font-family="sans-serif" font-size="10px" fill="#000" opacity="0">1,900</text><text text-anchor="end" transform="translate(800,15)" font-family="sans-serif" font-size="10px" fill="#000" opacity="1">2,000</text></g><g class="mark-rule role-axis-domain" pointer-events="none"><line transform="translate(0,0)" x2="800" y2="0" stroke="#888" stroke-width="1" opacity="1"/></g><g class="mark-text role-axis-title" pointer-events="none"><text text-anchor="middle" transform="translate(400,30)" font-family="sans-serif" font-size="11px" font-weight="bold" fill="#000" opacity="1">年収（万円）</text></g></g><path class="foreground" aria-hidden="true" d="" pointer-events="none" display="none"/></g></g><g class="mark-group role-axis" role="graphics-symbol" aria-roledescription="axis" aria-label="Y-axis titled 'スキル組み合わせ' for a discrete scale with 10 values: AWS, AWS+WebFM, AWS+data_analysis, Data_base, Data_base+AWS, ending with Data_base+WebFM"><g transform="translate(0.5,0.5)"><path class="background" aria-hidden="true" d="M0,0h0v0h0Z" pointer-events="none"/><g><g class="mark-rule role-axis-tick" pointer-events="none"><line transform="translate(0,25)" x2="-5" y2="0" stroke="#888" stroke-width="1" opacity="1"/><line transform="translate(0,75)" x2="-5" y2="0" stroke="#888" stroke-width="1" opacity="1"/><line transform="translate(0,125)" x2="-5" y2="0" stroke="#888" stroke-width="1" opacity="1"/><line transform="translate(0,175)" x2="-5" y2="0" stroke="#888" stroke-width="1" opacity="1"/><line transform="translate(0,225)" x2="-5" y2="0" stroke="#888" stroke-width="1" opacity="1"/><line transform="translate(0,275)" x2="-5" y2="0" stroke="#888" stroke-width="1" opacity="1"/><line transform="translate(0,325)" x2="-5" y2="0" stroke="#888" stroke-width="1" opacity="1"/><line transform="translate(0,375)" x2="-5" y2="0" stroke="#888" stroke-width="1" opacity="1"/><line transform="translate(0,425)" x2="-5" y2="0" stroke="#888" stroke-width="1" opacity="1"/><line transform="translate(0,475)" x2="-5" y2="0" stroke="#888" stroke-width="1" opacity="1"/></g><g class="mark-text role-axis-label" pointer-events="none"><text text-anchor="end" transform="translate(-7,27.5)" font-family="sans-serif" font-size="10px" fill="#000" opacity="1">AWS</text><text text-anchor="end" transform="translate(-7,77.5)" font-family="sans-serif" font-size="10px" fill="#000" opacity="1">AWS+WebFM</text><text text-anchor="end" transform="translate(-7,127.5)" font-family="sans-serif" font-size="10px" fill="#000" opacity="1">AWS+data_analysis</text><text text-anchor="end" transform="translate(-7,177.5)" font-family="sans-serif" font-size="10px" fill="#000" opacity="1">Data_base</text><text text-anchor="end" transform="translate(-7,227.5)" font-family="sans-serif" font-size="10px" fill="#000" opacity="1">Data_base+AWS</text><text text-anchor="end" transform="translate(-7,277.5)" font-family="sans-serif" font-size="10px" fill="#000" opacity="1">Data_base+AWS+ML</text><text text-anchor="end" transform="translate(-7,327.5)" font-family="sans-serif" font-size="10px" fill="#000" opacity="1">Data_base+AWS+ML+WebFM</text><text text-anchor="end" transform="translate(-7,377.5)" font-family="sans-serif" font-size="10px" fill="#000" opacity="1">Data_base+AWS+ML+WebFM+da…</text><text text-anchor="end" transform="translate(-7,427.5)" font-family="sans-serif" font-size="10px" fill="#000" opacity="1">Data_base+AWS+WebFM</text><text text-anchor="end" transform="translate(-7,477.5)" font-family="sans-serif" font-size="10px" fill="#000" opacity="1">Data_base+WebFM</text></g><g class="mark-rule role-axis-domain" pointer-events="none"><line transform="translate(0,0)" x2="0" y2="500" stroke="#888" stroke-width="1" opacity="1"/></g><g class="mark-text role-axis-title" pointer-events="none"><text text-anchor="middle" transform="translate(-187.9098663330078,250) rotate(-90) translate(0,-2)" font-family="sans-serif" font-size="11px" font-weight="bold" fill="#000" opacity="1">スキル組み合わせ</text></g></g><path class="foreground" aria-hidden="true" d="" pointer-events="none" display="none"/></g></g><g class="mark-rule role-mark layer_0_marks" aria-hidden="true"><line transform="translate(120,425)" x2="40" y2="0" stroke="black"/><line transform="translate(212,375)" x2="0" y2="0" stroke="black"/><line transform="translate(140,175)" x2="20" y2="0" stroke="black"/><line transform="translate(100,225)" x2="60" y2="0" stroke="black"/><line transform="translate(120,25)" x2="40" y2="0" stroke="black"/><line transform="translate(160,325)" x2="0" y2="0" stroke="black"/><line transform="translate(160,75)" x2="0" y2="0" stroke="black"/><line transform="translate(280,275)" x2="0" y2="0" stroke="black"/><line transform="translate(220.00000000000003,125)" x2="14.999999999999972" y2="0" stroke="black"/><line transform="translate(160,475)" x2="30" y2="0" stroke="black"/><line transform="translate(180,425)" x2="40.00000000000003" y2="0" stroke="black"/><line transform="translate(306,375)" x2="0" y2="0" stroke="black"/><line transform="translate(172,175)" x2="41" y2="0" stroke="black"/><line transform="translate(130,225)" x2="94.00000000000003" y2="0" stroke="black"/><line transform="translate(160,25)" x2="65.5" y2="0" stroke="black"/><line transform="translate(210,325)" x2="0" y2="0" stroke="black"/><line transform="translate(260,75)" x2="0" y2="0" stroke="black"/><line transform="translate(340,275)" x2="10" y2="0" stroke="black"/><line transform="translate(310,125)" x2="22.5" y2="0" stroke="black"/><line transform="translate(240,475)" x2="0" y2="0" stroke="black"/><line transform="translate(220.00000000000003,425)" x2="59.99999999999997" y2="0" stroke="black"/><line transform="translate(400,375)" x2="0" y2="0" stroke="black"/><line transform="translate(200,175)" x2="50" y2="0" stroke="black"/><line transform="translate(160,225)" x2="120" y2="0" stroke="black"/><line transform="translate(200,25)" x2="80" y2="0" stroke="black"/><line transform="translate(260,325)" x2="0" y2="0" stroke="black"/><line transform="translate(320,75)" x2="0" y2="0" stroke="black"/><line transform="translate(400,275)" x2="20" y2="0" stroke="black"/><line transform="translate(400,125)" x2="30" y2="0" stroke="black"/><line transform="translate(280,475)" x2="30" y2="0" stroke="black"/></g><g class="mark-rule role-mark layer_1_marks" aria-hidden="true"><line transform="translate(200,425)" x2="80" y2="0" stroke="black"/><line transform="translate(212,375)" x2="0" y2="0" stroke="black"/><line transform="translate(210.4,175)" x2="114.79999999999998" y2="0" stroke="black"/><line transform="translate(240,225)" x2="80" y2="0" stroke="black"/><line transform="translate(222.8,25)" x2="97.19999999999999" y2="0" stroke="black"/><line transform="translate(160,325)" x2="0" y2="0" stroke="black"/><line transform="translate(200,75)" x2="112" y2="0" stroke="black"/><line transform="translate(300,275)" x2="20" y2="0" stroke="black"/><line transform="translate(265,125)" x2="15" y2="0" stroke="black"/><line transform="translate(250,475)" x2="150" y2="0" stroke="black"/><line transform="translate(316.8,425)" x2="33.19999999999999" y2="0" stroke="black"/><line transform="translate(306,375)" x2="0" y2="0" stroke="black"/><line transform="translate(300,175)" x2="262.6" y2="0" stroke="black"/><line transform="translate(315,225)" x2="165" y2="0" stroke="black"/><line transform="translate(300,25)" x2="159.99999999999994" y2="0" stroke="black"/><line transform="translate(210,325)" x2="0" y2="0" stroke="black"/><line transform="translate(280,75)" x2="112" y2="0" stroke="black"/><line transform="translate(380,275)" x2="20" y2="0" stroke="black"/><line transform="translate(377.5,125)" x2="22.5" y2="0" stroke="black"/><line transform="translate(347,475)" x2="93.00000000000006" y2="0" stroke="black"/><line transform="translate(432,425)" x2="72" y2="0" stroke="black"/><line transform="translate(400,375)" x2="0" y2="0" stroke="black"/><line transform="translate(380,175)" x2="420" y2="0" stroke="black"/><line transform="translate(400,225)" x2="240" y2="0" stroke="black"/><line transform="translate(388,25)" x2="212" y2="0" stroke="black"/><line transform="translate(260,325)" x2="0" y2="0" stroke="black"/><line transform="translate(400,75)" x2="72" y2="0" stroke="black"/><line transform="translate(459.99999999999994,275)" x2="20.000000000000057" y2="0" stroke="black"/><line transform="translate(490.00000000000006,125)" x2="29.999999999999943" y2="0" stroke="black"/><line transform="translate(444.00000000000006,475)" x2="35.99999999999994" y2="0" stroke="black"/></g><g class="mark-rect role-mark layer_2_marks" role="graphics-object" aria-roledescription="rect mark container"><path aria-label="年収（万円）: 400; スキル組み合わせ: Data_base+AWS+WebFM; upper_box_income_value: 500; 収入タイプ: min_income; Max of 年収（万円）: 700; Q3 of 年収（万円）: 500; Median of 年収（万円）: 430; Q1 of 年収（万円）: 400; Min of 年収（万円）: 300" role="graphics-symbol" aria-roledescription="box" d="M160,418h40v14h-40Z" fill="#FFA07A"/><path aria-label="年収（万円）: 530; スキル組み合わせ: Data_base+AWS+ML+WebFM+data_analysis; upper_box_income_value: 530; 収入タイプ: min_income; Max of 年収（万円）: 530; Q3 of 年収（万円）: 530; Median of 年収（万円）: 530; Q1 of 年収（万円）: 530; Min of 年収（万円）: 530" role="graphics-symbol" aria-roledescription="box" d="M212,368h0v14h0Z" fill="#FFA07A"/><path aria-label="年収（万円）: 400; スキル組み合わせ: Data_base; upper_box_income_value: 526; 収入タイプ: min_income; Max of 年収（万円）: 813; Q3 of 年収（万円）: 526; Median of 年収（万円）: 450; Q1 of 年収（万円）: 400; Min of 年収（万円）: 350" role="graphics-symbol" aria-roledescription="box" d="M160,168h50.400000000000006v14h-50.400000000000006Z" fill="#FFA07A"/><path aria-label="年収（万円）: 400; スキル組み合わせ: Data_base+AWS; upper_box_income_value: 600; 収入タイプ: min_income; Max of 年収（万円）: 800; Q3 of 年収（万円）: 600; Median of 年収（万円）: 500; Q1 of 年収（万円）: 400; Min of 年収（万円）: 250" role="graphics-symbol" aria-roledescription="box" d="M160,218h80v14h-80Z" fill="#FFA07A"/><path aria-label="年収（万円）: 400; スキル組み合わせ: AWS; upper_box_income_value: 557; 収入タイプ: min_income; Max of 年収（万円）: 800; Q3 of 年収（万円）: 557; Median of 年収（万円）: 470; Q1 of 年収（万円）: 400; Min of 年収（万円）: 300" role="graphics-symbol" aria-roledescription="box" d="M160,18h62.80000000000001v14h-62.80000000000001Z" fill="#FFA07A"/><path aria-label="年収（万円）: 400; スキル組み合わせ: Data_base+AWS+ML+WebFM; upper_box_income_value: 400; 収入タイプ: min_income; Max of 年収（万円）: 400; Q3 of 年収（万円）: 400; Median of 年収（万円）: 400; Q1 of 年収（万円）: 400; Min of 年収（万円）: 400" role="graphics-symbol" aria-roledescription="box" d="M160,318h0v14h0Z" fill="#FFA07A"/><path aria-label="年収（万円）: 400; スキル組み合わせ: AWS+WebFM; upper_box_income_value: 500; 収入タイプ: min_income; Max of 年収（万円）: 780; Q3 of 年収（万円）: 500; Median of 年収（万円）: 500; Q1 of 年収（万円）: 400; Min of 年収（万円）: 400" role="graphics-symbol" aria-roledescription="box" d="M160,68h40v14h-40Z" fill="#FFA07A"/><path aria-label="年収（万円）: 700; スキル組み合わせ: Data_base+AWS+ML; upper_box_income_value: 750; 収入タイプ: min_income; Max of 年収（万円）: 800; Q3 of 年収（万円）: 750; Median of 年収（万円）: 700; Q1 of 年収（万円）: 700; Min of 年収（万円）: 700" role="graphics-symbol" aria-roledescription="box" d="M280,268h20v14h-20Z" fill="#FFA07A"/><path aria-label="年収（万円）: 587.5; スキル組み合わせ: AWS+data_analysis; upper_box_income_value: 662.5; 収入タイプ: min_income; Max of 年収（万円）: 700; Q3 of 年収（万円）: 662.5; Median of 年収（万円）: 625; Q1 of 年収（万円）: 587.5; Min of 年収（万円）: 550" role="graphics-symbol" aria-roledescription="box" d="M235,118h30v14h-30Z" fill="#FFA07A"/><path aria-label="年収（万円）: 475; スキル組み合わせ: Data_base+WebFM; upper_box_income_value: 625; 収入タイプ: min_income; Max of 年収（万円）: 1000; Q3 of 年収（万円）: 625; Median of 年収（万円）: 500; Q1 of 年収（万円）: 475; Min of 年収（万円）: 400" role="graphics-symbol" aria-roledescription="box" d="M190,468h60v14h-60Z" fill="#FFA07A"/><path aria-label="年収（万円）: 550; スキル組み合わせ: Data_base+AWS+WebFM; upper_box_income_value: 792; 収入タイプ: avg_income; Max of 年収（万円）: 875; Q3 of 年収（万円）: 792; Median of 年収（万円）: 625; Q1 of 年収（万円）: 550; Min of 年収（万円）: 450" role="graphics-symbol" aria-roledescription="box" d="M220.00000000000003,418h96.79999999999998v14h-96.79999999999998Z" fill="#87CEFA"/><path aria-label="年収（万円）: 765; スキル組み合わせ: Data_base+AWS+ML+WebFM+data_analysis; upper_box_income_value: 765; 収入タイプ: avg_income; Max of 年収（万円）: 765; Q3 of 年収（万円）: 765; Median of 年収（万円）: 765; Q1 of 年収（万円）: 765; Min of 年収（万円）: 765" role="graphics-symbol" aria-roledescription="box" d="M306,368h0v14h0Z" fill="#87CEFA"/><path aria-label="年収（万円）: 532.5; スキル組み合わせ: Data_base; upper_box_income_value: 750; 収入タイプ: avg_income; Max of 年収（万円）: 1406.5; Q3 of 年収（万円）: 750; Median of 年収（万円）: 595; Q1 of 年収（万円）: 532.5; Min of 年収（万円）: 430" role="graphics-symbol" aria-roledescription="box" d="M213,168h87v14h-87Z" fill="#87CEFA"/><path aria-label="年収（万円）: 560; スキル組み合わせ: Data_base+AWS; upper_box_income_value: 787.5; 収入タイプ: avg_income; Max of 年収（万円）: 1200; Q3 of 年収（万円）: 787.5; Median of 年収（万円）: 650; Q1 of 年収（万円）: 560; Min of 年収（万円）: 325" role="graphics-symbol" aria-roledescription="box" d="M224.00000000000003,218h90.99999999999997v14h-90.99999999999997Z" fill="#87CEFA"/><path aria-label="年収（万円）: 563.75; スキル組み合わせ: AWS; upper_box_income_value: 750; 収入タイプ: avg_income; Max of 年収（万円）: 1150; Q3 of 年収（万円）: 750; Median of 年収（万円）: 625; Q1 of 年収（万円）: 563.75; Min of 年収（万円）: 400" role="graphics-symbol" aria-roledescription="box" d="M225.5,18h74.5v14h-74.5Z" fill="#87CEFA"/><path aria-label="年収（万円）: 525; スキル組み合わせ: Data_base+AWS+ML+WebFM; upper_box_income_value: 525; 収入タイプ: avg_income; Max of 年収（万円）: 525; Q3 of 年収（万円）: 525; Median of 年収（万円）: 525; Q1 of 年収（万円）: 525; Min of 年収（万円）: 525" role="graphics-symbol" aria-roledescription="box" d="M210,318h0v14h0Z" fill="#87CEFA"/><path aria-label="年収（万円）: 650; スキル組み合わせ: AWS+WebFM; upper_box_income_value: 700; 収入タイプ: avg_income; Max of 年収（万円）: 980; Q3 of 年収（万円）: 700; Median of 年収（万円）: 650; Q1 of 年収（万円）: 650; Min of 年収（万円）: 650" role="graphics-symbol" aria-roledescription="box" d="M260,68h20v14h-20Z" fill="#87CEFA"/><path aria-label="年収（万円）: 875; スキル組み合わせ: Data_base+AWS+ML; upper_box_income_value: 950; 収入タイプ: avg_income; Max of 年収（万円）: 1000; Q3 of 年収（万円）: 950; Median of 年収（万円）: 900; Q1 of 年収（万円）: 875; Min of 年収（万円）: 850" role="graphics-symbol" aria-roledescription="box" d="M350,268h30v14h-30Z" fill="#87CEFA"/><path aria-label="年収（万円）: 831.25; スキル組み合わせ: AWS+data_analysis; upper_box_income_value: 943.75; 収入タイプ: avg_income; Max of 年収（万円）: 1000; Q3 of 年収（万円）: 943.75; Median of 年収（万円）: 887.5; Q1 of 年収（万円）: 831.25; Min of 年収（万円）: 775" role="graphics-symbol" aria-roledescription="box" d="M332.5,118h45v14h-45Z" fill="#87CEFA"/><path aria-label="年収（万円）: 600; スキル組み合わせ: Data_base+WebFM; upper_box_income_value: 867.5; 収入タイプ: avg_income; Max of 年収（万円）: 1100; Q3 of 年収（万円）: 867.5; Median of 年収（万円）: 695; Q1 of 年収（万円）: 600; Min of 年収（万円）: 600" role="graphics-symbol" aria-roledescription="box" d="M240,468h107v14h-107Z" fill="#87CEFA"/><path aria-label="年収（万円）: 700; スキル組み合わせ: Data_base+AWS+WebFM; upper_box_income_value: 1080; 収入タイプ: max_income; Max of 年収（万円）: 1260; Q3 of 年収（万円）: 1080; Median of 年収（万円）: 800; Q1 of 年収（万円）: 700; Min of 年収（万円）: 550" role="graphics-symbol" aria-roledescription="box" d="M280,418h152v14h-152Z" fill="#90EE90"/><path aria-label="年収（万円）: 1000; スキル組み合わせ: Data_base+AWS+ML+WebFM+data_analysis; upper_box_income_value: 1000; 収入タイプ: max_income; Max of 年収（万円）: 1000; Q3 of 年収（万円）: 1000; Median of 年収（万円）: 1000; Q1 of 年収（万円）: 1000; Min of 年収（万円）: 1000" role="graphics-symbol" aria-roledescription="box" d="M400,368h0v14h0Z" fill="#90EE90"/><path aria-label="年収（万円）: 625; スキル組み合わせ: Data_base; upper_box_income_value: 950; 収入タイプ: max_income; Max of 年収（万円）: 2000; Q3 of 年収（万円）: 950; Median of 年収（万円）: 800; Q1 of 年収（万円）: 625; Min of 年収（万円）: 500" role="graphics-symbol" aria-roledescription="box" d="M250,168h130v14h-130Z" fill="#90EE90"/><path aria-label="年収（万円）: 700; スキル組み合わせ: Data_base+AWS; upper_box_income_value: 1000; 収入タイプ: max_income; Max of 年収（万円）: 1600; Q3 of 年収（万円）: 1000; Median of 年収（万円）: 800; Q1 of 年収（万円）: 700; Min of 年収（万円）: 400" role="graphics-symbol" aria-roledescription="box" d="M280,218h120v14h-120Z" fill="#90EE90"/><path aria-label="年収（万円）: 700; スキル組み合わせ: AWS; upper_box_income_value: 970; 収入タイプ: max_income; Max of 年収（万円）: 1500; Q3 of 年収（万円）: 970; Median of 年収（万円）: 800; Q1 of 年収（万円）: 700; Min of 年収（万円）: 500" role="graphics-symbol" aria-roledescription="box" d="M280,18h108v14h-108Z" fill="#90EE90"/><path aria-label="年収（万円）: 650; スキル組み合わせ: Data_base+AWS+ML+WebFM; upper_box_income_value: 650; 収入タイプ: max_income; Max of 年収（万円）: 650; Q3 of 年収（万円）: 650; Median of 年収（万円）: 650; Q1 of 年収（万円）: 650; Min of 年収（万円）: 650" role="graphics-symbol" aria-roledescription="box" d="M260,318h0v14h0Z" fill="#90EE90"/><path aria-label="年収（万円）: 800; スキル組み合わせ: AWS+WebFM; upper_box_income_value: 1000; 収入タイプ: max_income; Max of 年収（万円）: 1180; Q3 of 年収（万円）: 1000; Median of 年収（万円）: 900; Q1 of 年収（万円）: 800; Min of 年収（万円）: 800" role="graphics-symbol" aria-roledescription="box" d="M320,68h80v14h-80Z" fill="#90EE90"/><path aria-label="年収（万円）: 1050; スキル組み合わせ: Data_base+AWS+ML; upper_box_income_value: 1150; 収入タイプ: max_income; Max of 年収（万円）: 1200; Q3 of 年収（万円）: 1150; Median of 年収（万円）: 1100; Q1 of 年収（万円）: 1050; Min of 年収（万円）: 1000" role="graphics-symbol" aria-roledescription="box" d="M420,268h39.99999999999994v14h-39.99999999999994Z" fill="#90EE90"/><path aria-label="年収（万円）: 1075; スキル組み合わせ: AWS+data_analysis; upper_box_income_value: 1225; 収入タイプ: max_income; Max of 年収（万円）: 1300; Q3 of 年収（万円）: 1225; Median of 年収（万円）: 1150; Q1 of 年収（万円）: 1075; Min of 年収（万円）: 1000" role="graphics-symbol" aria-roledescription="box" d="M430,118h60.00000000000006v14h-60.00000000000006Z" fill="#90EE90"/><path aria-label="年収（万円）: 775; スキル組み合わせ: Data_base+WebFM; upper_box_income_value: 1110; 収入タイプ: max_income; Max of 年収（万円）: 1200; Q3 of 年収（万円）: 1110; Median of 年収（万円）: 940; Q1 of 年収（万円）: 775; Min of 年収（万円）: 700" role="graphics-symbol" aria-roledescription="box" d="M310,468h134.00000000000006v14h-134.00000000000006Z" fill="#90EE90"/></g><g class="mark-rect role-mark layer_3_marks" aria-hidden="true"><path d="M171.5,418h1v14h-1Z" fill="white" opacity="0.7"/><path d="M211.5,368h1v14h-1Z" fill="#FFA07A" opacity="0.7"/><path d="M179.5,168h1v14h-1Z" fill="white" opacity="0.7"/><path d="M199.5,218h1v14h-1Z" fill="white" opacity="0.7"/><path d="M187.5,18h1v14h-1Z" fill="white" opacity="0.7"/><path d="M159.5,318h1v14h-1Z" fill="#FFA07A" opacity="0.7"/><path d="M199.5,68h1v14h-1Z" fill="white" opacity="0.7"/><path d="M279.5,268h1v14h-1Z" fill="white" opacity="0.7"/><path d="M249.5,118h1v14h-1Z" fill="white" opacity="0.7"/><path d="M199.5,468h1v14h-1Z" fill="white" opacity="0.7"/><path d="M249.5,418h1v14h-1Z" fill="white" opacity="0.7"/><path d="M305.5,368h1v14h-1Z" fill="#87CEFA" opacity="0.7"/><path d="M237.5,168h1v14h-1Z" fill="white" opacity="0.7"/><path d="M259.5,218h1v14h-1Z" fill="white" opacity="0.7"/><path d="M249.5,18h1v14h-1Z" fill="white" opacity="0.7"/><path d="M209.5,318h1v14h-1Z" fill="#87CEFA" opacity="0.7"/><path d="M259.5,68h1v14h-1Z" fill="white" opacity="0.7"/><path d="M359.5,268h1v14h-1Z" fill="white" opacity="0.7"/><path d="M354.5,118h1v14h-1Z" fill="white" opacity="0.7"/><path d="M277.5,468h1v14h-1Z" fill="white" opacity="0.7"/><path d="M319.5,418h1v14h-1Z" fill="white" opacity="0.7"/><path d="M399.5,368h1v14h-1Z" fill="#90EE90" opacity="0.7"/><path d="M319.5,168h1v14h-1Z" fill="white" opacity="0.7"/><path d="M319.5,218h1v14h-1Z" fill="white" opacity="0.7"/><path d="M319.5,18h1v14h-1Z" fill="white" opacity="0.7"/><path d="M259.5,318h1v14h-1Z" fill="#90EE90" opacity="0.7"/><path d="M359.5,68h1v14h-1Z" fill="white" opacity="0.7"/><path d="M439.50000000000006,268h1v14h-1Z" fill="white" opacity="0.7"/><path d="M459.49999999999994,118h1v14h-1Z" fill="white" opacity="0.7"/><path d="M375.5,468h1v14h-1Z" fill="white" opacity="0.7"/></g><g class="mark-group role-legend" role="graphics-symbol" aria-roledescription="legend" aria-label="Symbol legend titled '収入タイプ' for fill color with 3 values: min_income, avg_income, max_income"><g transform="translate(818,0)"><path class="background" aria-hidden="true" d="M0,0h78v53h-78Z" pointer-events="none"/><g><g class="mark-group role-legend-entry"><g transform="translate(0,16)"><path class="background" aria-hidden="true" d="M0,0h0v0h0Z" pointer-events="none"/><g><g class="mark-group role-scope" role="graphics-object" aria-roledescription="group mark container"><g transform="translate(0,0)"><path class="background" aria-hidden="true" d="M0,0h77.20994567871094v11h-77.20994567871094Z" pointer-events="none" opacity="1"/><g><g class="mark-symbol role-legend-symbol" pointer-events="none"><path transform="translate(6,6)" d="M5,0A5,5,0,1,1,-5,0A5,5,0,1,1,5,0" fill="#FFA07A" stroke-width="1.5" opacity="0.7"/></g><g class="mark-text role-legend-label" pointer-events="none"><text text-anchor="start" transform="translate(16,9)" font-family="sans-serif" font-size="10px" fill="#000" opacity="1">min_income</text></g></g><path class="foreground" aria-hidden="true" d="" pointer-events="none" display="none"/></g><g transform="translate(0,13)"><path class="background" aria-hidden="true" d="M0,0h77.20994567871094v11h-77.20994567871094Z" pointer-events="none" opacity="1"/><g><g class="mark-symbol role-legend-symbol" pointer-events="none"><path transform="translate(6,6)" d="M5,0A5,5,0,1,1,-5,0A5,5,0,1,1,5,0" fill="#87CEFA" stroke-width="1.5" opacity="0.7"/></g><g class="mark-text role-legend-label" pointer-events="none"><text text-anchor="start" transform="translate(16,9)" font-family="sans-serif" font-size="10px" fill="#000" opacity="1">avg_income</text></g></g><path class="foreground" aria-hidden="true" d="" pointer-events="none" display="none"/></g><g transform="translate(0,26)"><path class="background" aria-hidden="true" d="M0,0h77.20994567871094v11h-77.20994567871094Z" pointer-events="none" opacity="1"/><g><g class="mark-symbol role-legend-symbol" pointer-events="none"><path transform="translate(6,6)" d="M5,0A5,5,0,1,1,-5,0A5,5,0,1,1,5,0" fill="#90EE90" stroke-width="1.5" opacity="0.7"/></g><g class="mark-text role-legend-label" pointer-events="none"><text text-anchor="start" transform="translate(16,9)" font-family="sans-serif" font-size="10px" fill="#000" opacity="1">max_income</text></g></g><path class="foreground" aria-hidden="true" d="" pointer-events="none" display="none"/></g></g></g><path class="foreground" aria-hidden="true" d="" pointer-events="none" display="none"/></g></g><g class="mark-text role-legend-title" pointer-events="none"><text text-anchor="start" transform="translate(0,9)" font-family="sans-serif" font-size="11px" font-weight="bold" fill="#000" opacity="1">収入タイプ</text></g></g><path class="foreground" aria-hidden="true" d="" pointer-events="none" display="none"/></g></g><g class="mark-group role-title"><g transform="translate(400,-17)"><path class="background" aria-hidden="true" d="M0,0h0v0h0Z" pointer-events="none"/><g><g class="mark-text role-title-text" role="graphics-symbol" aria-roledescription="title" aria-label="Title text 'スキル組み合わせ別の年収（min / avg / max）分布（箱ひげ図）'" pointer-events="none"><text text-anchor="middle" transform="translate(0,10)" font-family="sans-serif" font-size="13px" font-weight="bold" fill="#000" opacity="1">スキル組み合わせ別の年収（min / avg / max）分布（箱ひげ図）</text></g></g><path class="foreground" aria-hidden="true" d="" pointer-events="none" display="none"/></g></g></g><path class="foreground" aria-hidden="true" d="" display="none"/></g></g></g></svg>